<svg xmlns="http://www.w3.org/2000/svg" width="124.153" height="128.597" viewBox="0 0 124.153 128.597">
  <g id="Logo-Nasati_copy-01" data-name="Logo-Nasati copy-01" transform="translate(-25.534 -26.653)">
    <g id="Group_21" data-name="Group 21">
      <g id="Group_19" data-name="Group 19">
        <path id="Path_14" data-name="Path 14" d="M34.15,67.93l6.83,5.5s31.4-35.27,70.5-40.5c8.85-1.18,28.85-1.33,34.33,9.83,2.71,5.53-.25,16-4.17,25.33l-2.67-3.17-.33,9.67,8.54-3.69-3.7-1.65s17.03-28.91-5.33-39.33c-11.89-5.54-33-3.81-52.33,3.5C71.29,38.92,49.31,53.09,34.15,67.93Z" fill="#d60441"/>
        <path id="Path_15" data-name="Path 15" d="M141.07,80.18l-6.83-5.5s-31.4,35.27-70.5,40.5c-8.85,1.19-28.85,1.33-34.33-9.83-2.71-5.53.25-16,4.17-25.33l2.67,3.17.33-9.67-8.54,3.69,3.7,1.65s-17.03,28.91,5.33,39.33c11.89,5.54,33,3.81,52.33-3.5C103.94,109.18,125.91,95.01,141.07,80.18Z" fill="#1348ad"/>
      </g>
      <g id="Group_20" data-name="Group 20">
        <path id="Path_16" data-name="Path 16" d="M112.52,74.59A24.913,24.913,0,0,1,87.61,99.5h0A24.907,24.907,0,0,1,62.7,74.59h0A24.907,24.907,0,0,1,87.61,49.68h0a24.919,24.919,0,0,1,24.91,24.91Z" fill="#0097ff"/>
        <path id="Path_17" data-name="Path 17" d="M86.39,99.56C71.45,93.29,72.29,74.6,72.29,74.6c0-20.33,14.1-24.96,14.1-24.96s.77-.03,1.03-.03,1.03.03,1.03.03c14.94,6.27,14.1,24.96,14.1,24.96,0,20.33-14.1,24.96-14.1,24.96" fill="#fff"/>
        <path id="Path_18" data-name="Path 18" d="M87.42,97.63C74.08,91.11,74.85,74.59,74.85,74.59c0-15.15,8.67-21.12,12.41-23l.12-.06c13.38,6.5,12.61,23.06,12.61,23.06,0,15.09-8.61,21.08-12.37,22.98Z" fill="#0097ff"/>
        <rect id="Rectangle_24" data-name="Rectangle 24" width="2.45" height="49.93" transform="translate(86.19 49.63)" fill="#fff"/>
        <rect id="Rectangle_25" data-name="Rectangle 25" width="49.98" height="2.27" transform="translate(62.62 73.66)" fill="#fff"/>
        <path id="Path_19" data-name="Path 19" d="M70.49,56.39s16.2,10.06,34.23,0l1.7,1.76c-.34.18-2.03,1.17-2.37,1.33A35.392,35.392,0,0,1,87.6,63.26a37.713,37.713,0,0,1-16.13-3.94c-.42-.22-2.53-1.35-2.53-1.35Z" fill="#fff"/>
        <path id="Path_20" data-name="Path 20" d="M106.24,91.28s-2.1-1.13-2.53-1.35a37.561,37.561,0,0,0-16.13-3.94,35.119,35.119,0,0,0-16.45,3.78c-.33.17-2.03,1.15-2.37,1.33l1.7,1.76c18.04-10.06,34.23,0,34.23,0Z" fill="#fff"/>
      </g>
    </g>
    <g id="Group_22" data-name="Group 22">
      <text id="NASATI" transform="translate(43.801 149.25)" fill="#d30014" font-size="22.65" font-family="SegoeUI, Segoe UI"><tspan x="0" y="0">NASATI</tspan></text>
    </g>
  </g>
</svg>
